<?xml version="1.0" encoding="UTF-8"?>
<svg version="1.1" xmlns="http://www.w3.org/2000/svg" width="1628" height="359">
<path d="M0 0 C6.94613947 6.33983508 10.37518907 14.63762186 13.74609375 23.25390625 C14.44734375 22.46886719 15.14859375 21.68382812 15.87109375 20.875 C31.14797152 3.89678439 49.22753545 -9.56272158 72.86816406 -10.86279297 C88.74242569 -11.52449487 102.0627791 -9.76830126 114.87109375 0.31640625 C122.64389515 7.4686247 126.73067824 17.05280311 128.74609375 27.25390625 C128.92914062 28.16527344 129.1121875 29.07664063 129.30078125 30.015625 C130.83255465 41.15457368 130.04123663 52.67391241 128.53369141 63.76879883 C128.40223032 64.75242558 128.27076923 65.73605234 128.13532448 66.74948597 C126.45047709 78.92898116 124.17018782 90.99799844 121.89453125 103.078125 C121.42988225 105.56906337 120.9657505 108.06009827 120.50210571 110.55122375 C119.41724844 116.37249987 118.32677234 122.19270065 117.23354399 128.01240999 C115.98927243 134.63852575 114.75384563 141.26628257 113.51843905 147.89405572 C112.45808158 153.58074429 111.39510132 159.26694303 110.33203125 164.953125 C110.10671093 166.15885351 109.88139061 167.36458202 109.6492424 168.60684776 C109.01414289 172.00207871 108.37727301 175.39697216 107.73974609 178.79174805 C107.551689 179.79786636 107.3636319 180.80398468 107.1698761 181.84059143 C106.99613968 182.76365082 106.82240326 183.68671021 106.6434021 184.63774109 C106.49335913 185.43748195 106.34331615 186.23722281 106.18872643 187.06119823 C105.76933019 189.13879788 105.26014991 191.19768161 104.74609375 193.25390625 C85.93609375 193.25390625 67.12609375 193.25390625 47.74609375 193.25390625 C48.39559091 185.45994034 49.15496106 178.08438173 50.58789062 170.45581055 C50.7717482 169.45093094 50.95560577 168.44605133 51.14503479 167.41072083 C51.74622974 164.13216783 52.35551638 160.85517535 52.96484375 157.578125 C53.38755026 155.28044006 53.80970086 152.98265279 54.23132324 150.68476868 C55.33723686 144.66474471 56.44984506 138.64597847 57.56414795 132.62750244 C59.34919768 122.97883976 61.12316864 113.3281317 62.8986969 103.67771339 C63.51793439 100.31669592 64.13952409 96.9561206 64.76159668 93.59562683 C65.14252015 91.53209864 65.5234214 89.46856635 65.90429688 87.4050293 C66.07679459 86.47657196 66.2492923 85.54811462 66.42701721 84.59152222 C70.60256921 63.35309384 70.60256921 63.35309384 64.74609375 43.25390625 C60.56281303 39.07062553 56.98744433 38.07564695 51.18359375 37.87890625 C42.36830337 37.9957354 36.4957027 41.33696153 30.12109375 47.25390625 C18.82346817 59.34713926 12.4148048 75.12338017 8.29980469 90.95068359 C8.08733471 91.76511618 7.87486473 92.57954876 7.65595627 93.41866112 C5.17238435 103.1848548 3.37276738 113.06996261 1.57421875 122.98046875 C1.20335586 124.9912966 0.83173863 127.00198546 0.45941162 129.01254272 C-0.50626826 134.23539316 -1.46412251 139.45964255 -2.41949463 144.68438721 C-3.96049788 153.10784089 -5.51076156 161.52957833 -7.0666275 169.95029831 C-7.60703674 172.88406857 -8.14222656 175.81875774 -8.67694092 178.75357056 C-9.0041666 180.53187447 -9.33156947 182.31014579 -9.65917969 184.08837891 C-9.80669174 184.90585098 -9.9542038 185.72332306 -10.10618591 186.56556702 C-11.1402322 192.1402322 -11.1402322 192.1402322 -12.25390625 193.25390625 C-14.03382549 193.34761249 -15.81747364 193.37134896 -17.59985352 193.36743164 C-18.74096085 193.36735611 -19.88206818 193.36728058 -21.05775452 193.36720276 C-22.29939865 193.36204147 -23.54104279 193.35688019 -24.8203125 193.3515625 C-26.71595192 193.34944008 -26.71595192 193.34944008 -28.64988708 193.34727478 C-32.01515514 193.34261207 -35.38035615 193.33362105 -38.74560547 193.3225708 C-42.17740295 193.31235471 -45.60920734 193.30777674 -49.04101562 193.30273438 C-55.77866449 193.29168005 -62.5162815 193.27492335 -69.25390625 193.25390625 C-67.64934386 180.68327767 -65.28040984 168.26950836 -62.9375 155.8203125 C-62.51646712 153.57028258 -62.09574192 151.32019506 -61.67530823 149.0700531 C-60.57511779 143.1853277 -59.47164421 137.30122338 -58.3671875 131.41729736 C-56.59558031 121.97731279 -54.82803585 112.53656877 -53.06236458 103.09547234 C-52.44724158 99.80984628 -51.83010376 96.52460329 -51.2127533 93.23939514 C-50.83504536 91.22284195 -50.45740212 89.20627664 -50.07983398 87.18969727 C-49.90890732 86.2830835 -49.73798065 85.37646973 -49.56187439 84.44238281 C-45.51596611 64.28707661 -45.51596611 64.28707661 -50.0390625 44.88671875 C-52.31110785 41.83297291 -54.88735866 39.93718004 -58.25390625 38.25390625 C-66.72830223 37.31528644 -73.25387665 38.29555195 -80.25390625 43.25390625 C-103.28476516 62.14201919 -109.65022815 93.68780114 -114.5234375 121.515625 C-114.89248576 123.56992998 -115.26268187 125.62402904 -115.63395691 127.67793274 C-116.59528725 133.01027549 -117.54356646 138.34484579 -118.48815918 143.68017578 C-120.01372824 152.2841663 -121.559229 160.88459514 -123.10556602 169.48487282 C-123.64216461 172.48060463 -124.17282219 175.47734273 -124.70259094 178.47428894 C-125.02661391 180.28976721 -125.35075956 182.10522358 -125.67504883 183.9206543 C-125.82098984 184.75525681 -125.96693085 185.58985931 -126.11729431 186.44975281 C-127.1404658 192.1404658 -127.1404658 192.1404658 -128.25390625 193.25390625 C-130.03382549 193.34761249 -131.81747364 193.37134896 -133.59985352 193.36743164 C-134.74096085 193.36735611 -135.88206818 193.36728058 -137.05775452 193.36720276 C-138.29939865 193.36204147 -139.54104279 193.35688019 -140.8203125 193.3515625 C-142.71595192 193.34944008 -142.71595192 193.34944008 -144.64988708 193.34727478 C-148.01515514 193.34261207 -151.38035615 193.33362105 -154.74560547 193.3225708 C-158.17740295 193.31235471 -161.60920734 193.30777674 -165.04101562 193.30273438 C-171.77866449 193.29168005 -178.5162815 193.27492335 -185.25390625 193.25390625 C-184.5487992 185.93970376 -183.32942883 178.79227046 -181.97241211 171.57299805 C-181.61742125 169.66196982 -181.26243245 167.75094121 -180.90751851 165.83989871 C-180.52710637 163.7947421 -180.14514422 161.74988011 -179.76280022 159.70508385 C-178.95380647 155.3768592 -178.15090317 151.04751761 -177.34901428 146.7179718 C-175.06793735 134.40655291 -172.78071732 122.09628616 -170.48364258 109.7878418 C-168.80338813 100.78202744 -167.13158131 91.77467281 -165.46875 82.765625 C-165.33291111 82.03014734 -165.19707221 81.29466968 -165.05711699 80.53690481 C-160.81504585 57.54987768 -156.94402399 34.53567438 -153.52757263 11.40910339 C-153.30244775 9.88690343 -153.30244775 9.88690343 -153.07277489 8.33395195 C-152.79754475 6.46234241 -152.52531445 4.59028814 -152.2567234 2.71771431 C-152.13784956 1.9021047 -152.01897572 1.08649509 -151.89649963 0.24617004 C-151.79562325 -0.45773456 -151.69474688 -1.16163916 -151.59081364 -1.8868742 C-151.25390625 -3.74609375 -151.25390625 -3.74609375 -150.25390625 -6.74609375 C-133.42390625 -6.74609375 -116.59390625 -6.74609375 -99.25390625 -6.74609375 C-99.84302135 3.26886297 -100.43691253 13.25877034 -101.25390625 23.25390625 C-100.48820313 22.23683594 -100.48820313 22.23683594 -99.70703125 21.19921875 C-86.32643091 4.07015236 -69.36794511 -6.58197676 -47.921875 -10.328125 C-30.65864958 -12.295287 -14.16958188 -10.97712842 0 0 Z " fill="#E96166" transform="translate(763.25390625,85.74609375)"/>
<path d="M0 0 C16.65680807 13.06844185 23.90763318 29.88890362 27.5859375 50.2421875 C31.44684556 85.28174929 22.9636635 123.36519059 1.8125 151.95703125 C-0.39625121 154.69879707 -2.67606021 157.35551679 -5 160 C-6.02867187 161.24523437 -6.02867187 161.24523437 -7.078125 162.515625 C-23.92870862 182.36186793 -48.24107196 194.9329883 -74 198 C-78.29659027 198.27582149 -82.57037863 198.33425344 -86.875 198.3125 C-88.01324219 198.30831055 -89.15148437 198.30412109 -90.32421875 198.29980469 C-100.66190849 198.16098428 -109.55952702 196.81434491 -119.1953125 192.93457031 C-120.09523926 192.57276672 -120.99516602 192.21096313 -121.92236328 191.8381958 C-122.6079834 191.56159119 -123.29360352 191.28498657 -124 191 C-124.19822861 192.02508163 -124.39645721 193.05016327 -124.60069275 194.10630798 C-126.46529565 203.74585871 -128.33394706 213.38461681 -130.20661068 223.02260494 C-131.16933515 227.97813513 -132.13060884 232.93393773 -133.08862305 237.89038086 C-134.01244554 242.66964593 -134.94000552 247.44817145 -135.87021065 252.2261982 C-136.22521989 254.05326833 -136.57885965 255.88060509 -136.93113518 257.70820427 C-137.42309 260.25922327 -137.91981581 262.80926832 -138.41772461 265.35913086 C-138.56374115 266.12229614 -138.70975769 266.88546143 -138.86019897 267.67175293 C-139.88594784 272.88594784 -139.88594784 272.88594784 -141 274 C-142.84118029 274.09381302 -144.68597641 274.11743954 -146.52954102 274.11352539 C-147.71068985 274.11344986 -148.89183868 274.11337433 -150.10877991 274.11329651 C-151.3941716 274.10813522 -152.67956329 274.10297394 -154.00390625 274.09765625 C-155.9661338 274.09553383 -155.9661338 274.09553383 -157.96800232 274.09336853 C-161.45162859 274.0895441 -164.93521339 274.07971446 -168.41882324 274.06866455 C-171.97126698 274.05844882 -175.52371759 274.05381586 -179.07617188 274.04882812 C-186.05080005 274.03862235 -193.02539288 274.01985643 -200 274 C-196.27182137 252.69014012 -192.27414302 231.43501168 -188.23401451 210.18251038 C-187.10692676 204.2520687 -185.9838223 198.32087652 -184.86152649 192.38952637 C-184.57351222 190.8674862 -184.57351222 190.8674862 -184.27967948 189.31469774 C-183.88757745 187.24253534 -183.49548591 185.17037095 -183.10340464 183.09820461 C-180.5016899 169.3486466 -177.89773409 155.59952718 -175.2824707 141.85253906 C-162.54939767 75.11219734 -162.54939767 75.11219734 -152 8 C-151.34 3.38 -150.68 -1.24 -150 -6 C-132.18 -6 -114.36 -6 -96 -6 C-96.99 2.91 -97.98 11.82 -99 21 C-96.8653125 18.525 -96.8653125 18.525 -94.6875 16 C-71.96524358 -9.2996618 -29.47131453 -20.54337381 0 0 Z M-89.125 54.5625 C-105.39388298 76.05714539 -108.91528253 102.37246442 -113.3125 128.25 C-113.48402588 129.25538818 -113.65555176 130.26077637 -113.83227539 131.29663086 C-113.98688232 132.23514893 -114.14148926 133.17366699 -114.30078125 134.140625 C-114.43653564 134.96079102 -114.57229004 135.78095703 -114.7121582 136.62597656 C-115.01685066 139.13897865 -115.17913 141.47254207 -115 144 C-109.52157505 149.83187172 -101.07145756 152.55679239 -93.2734375 153.23828125 C-79.96355607 153.57910032 -69.66045496 148.41734304 -60 139.5 C-42.4670342 121.16373099 -33.24395864 93.02249856 -33.74609375 67.94921875 C-34.57930831 58.27111119 -37.08124804 49.38682724 -44.375 42.6875 C-59.71754574 30.52374809 -78.37372454 41.96695116 -89.125 54.5625 Z " fill="#E96166" transform="translate(1073,85)"/>
<path d="M0 0 C1.33328106 0.33354235 2.66660717 0.66690473 4 1 C3.44629025 7.69871687 2.49374023 14.18729397 1.11401367 20.76293945 C0.92522141 21.68342072 0.73642914 22.60390198 0.54191589 23.55227661 C0.13430128 25.5370626 -0.27553281 27.52139385 -0.68738747 29.50530434 C-1.3450509 32.67605199 -1.99556598 35.84819355 -2.64421082 39.02079773 C-4.48881501 48.03734856 -6.34462248 57.05157199 -8.20825195 66.06420898 C-15.73752669 102.34208009 -15.73752669 102.34208009 -21 139 C-21.10569305 139.92276733 -21.21138611 140.84553467 -21.32028198 141.79626465 C-23.36744978 159.79459786 -24.05196287 177.91957767 -25 196 C-42.82 196 -60.64 196 -79 196 C-79 175.29391892 -79 175.29391892 -78.5 167.375 C-78.42845703 166.1375 -78.42845703 166.1375 -78.35546875 164.875 C-78.24159624 162.91639277 -78.12156995 160.95814452 -78 159 C-78.36609375 159.64324219 -78.7321875 160.28648437 -79.109375 160.94921875 C-90.11286631 179.31456973 -105.81768974 192.54968463 -126.5 198.875 C-143.0336439 202.5686864 -161.46857446 200.94241572 -176 192 C-187.66143915 184.03609034 -195.00825481 174.15871291 -200 161 C-200.41507812 159.92363281 -200.83015625 158.84726563 -201.2578125 157.73828125 C-210.74973739 127.56989061 -202.88986752 90.60253031 -189.16625977 63.06445312 C-172.09526419 30.32765742 -144.28191035 9.26434864 -109.625 -2.1875 C-101.89402477 -4.47815933 -93.97247331 -5.85221932 -86 -7 C-85.33162109 -7.09716309 -84.66324219 -7.19432617 -83.97460938 -7.29443359 C-55.92214986 -10.90136341 -27.1929125 -6.87254753 0 0 Z M-118 57 C-118.65871094 57.63550781 -119.31742188 58.27101563 -119.99609375 58.92578125 C-135.86711983 75.45657285 -142.97739961 100.64821035 -143 123 C-142.41212595 132.11739214 -140.10584482 141.71828666 -133 148 C-126.77696655 152.14868897 -121.35458687 152.80930805 -114 152 C-101.42977253 148.4488603 -92.04869901 138.34985236 -85.828125 127.2578125 C-76.72035745 110.13580174 -72.9413532 91.83010473 -69 73 C-68.71136191 71.64102307 -68.4222902 70.28213818 -68.1328125 68.92333984 C-67.40295252 65.49207851 -66.68517638 62.05848686 -65.97628784 58.62283325 C-65.56964152 56.65948038 -65.15512914 54.69776199 -64.74047852 52.73608398 C-64.49740967 51.53669189 -64.25434082 50.3372998 -64.00390625 49.1015625 C-63.67628296 47.51335693 -63.67628296 47.51335693 -63.34204102 45.89306641 C-62.99576502 42.96417949 -63.24731256 40.83376207 -64 38 C-86.40990182 34.61737331 -102.27788152 41.32312503 -118 57 Z " fill="#E96166" transform="translate(588,83)"/>
<path d="M0 0 C-2.56572185 10.44285977 -6.17633827 20.53584774 -9.6875 30.6875 C-10.30044989 32.46798894 -10.91308268 34.24858707 -11.52539062 36.02929688 C-13.01327418 40.35413221 -14.5054412 44.67746716 -16 49 C-16.90878906 48.71213623 -16.90878906 48.71213623 -17.8359375 48.41845703 C-23.84296647 46.55974364 -29.83082591 45.07991681 -36 43.875 C-36.825 43.70613281 -37.65 43.53726563 -38.5 43.36328125 C-67.35494027 37.63737904 -96.90229453 41.16742712 -122 57 C-144.66312958 72.74373155 -157.6872245 97.4470993 -163 124 C-167.05600198 146.79039947 -166.76965186 172.66662107 -153.71484375 192.6640625 C-142.94843751 207.32991884 -128.62356133 215.92457474 -110.68554688 219.17529297 C-89.13158837 222.46853733 -66.79461932 219.64798754 -46.17578125 212.98828125 C-43 212 -43 212 -41 212 C-40.25957096 218.33431558 -39.53032072 224.66984631 -38.80883789 231.00634766 C-38.56206521 233.16191759 -38.31273235 235.31719603 -38.06079102 237.47216797 C-37.69915498 240.56925608 -37.34673093 243.66727483 -36.99609375 246.765625 C-36.82429848 248.21113739 -36.82429848 248.21113739 -36.64903259 249.68585205 C-36.49876366 251.03679962 -36.49876366 251.03679962 -36.34545898 252.41503906 C-36.25441391 253.20557678 -36.16336884 253.9961145 -36.06956482 254.81060791 C-35.99575152 257.13371104 -36.16771975 258.82825057 -37 261 C-70.11548669 277.63025901 -122.67043275 276.87574329 -156.96875 265.51171875 C-163.96548401 262.99854362 -170.52349296 259.62533861 -177 256 C-177.99773437 255.44441406 -178.99546875 254.88882812 -180.0234375 254.31640625 C-204.62689297 239.61778027 -220.09514825 214.49654194 -227.00390625 187.22265625 C-228.29940297 181.8453262 -229.34950754 176.49553977 -230 171 C-230.12246094 170.02160156 -230.24492187 169.04320312 -230.37109375 168.03515625 C-234.12442007 129.80683262 -225.14273808 88.1099102 -202 57 C-201.60087402 56.45569336 -201.20174805 55.91138672 -200.79052734 55.35058594 C-174.46533896 19.6673409 -135.55999446 -2.40759343 -92.02709961 -9.4128418 C-62.24154931 -13.69934253 -27.4869447 -13.5023588 0 0 Z " fill="#E96166" transform="translate(420,11)"/>
<path d="M0 0 C19.8 0 39.6 0 60 0 C58.84131284 8.11081013 57.69487325 16.11995193 56.15234375 24.14794922 C55.97970001 25.06063568 55.80705627 25.97332214 55.62918091 26.91366577 C55.25952106 28.86602882 54.88848132 30.81813104 54.5161438 32.7699852 C53.92410253 35.87495064 53.3363865 38.98070847 52.74975586 42.08670044 C51.08294012 50.90772728 49.40851566 59.7273043 47.73144531 68.54638672 C46.70050041 73.96934902 45.67444236 79.39321888 44.65115356 84.81763077 C44.26396575 86.86459102 43.8749188 88.91120064 43.4838562 90.95742416 C36.66735826 119.73308308 36.66735826 119.73308308 41 148 C44.40137762 152.53517016 47.47541448 153.95223378 53 155 C61.22541994 155.94908692 69.00223757 152.7355067 75.625 148 C88.51708902 137.1072189 95.46773581 121.25062016 99.95556641 105.34692383 C100.21204264 104.44110219 100.46851887 103.53528055 100.73276711 102.60200977 C103.57070588 92.30747555 105.5705942 81.87817761 107.5234375 71.38671875 C107.9175811 69.30906897 108.31258748 67.23158271 108.70840454 65.1542511 C109.73284751 59.76549245 110.74579615 54.37463949 111.75610352 48.98321533 C112.97875326 42.47242458 114.21612745 35.96441711 115.45094299 29.45592499 C117.31172297 19.63933421 119.15413519 9.81945901 121 0 C140.8 0 160.6 0 181 0 C179.67883418 8.58757784 178.28085075 17.0934603 176.62084961 25.61254883 C176.39117493 26.80221252 176.16150024 27.99187622 175.92486572 29.21759033 C175.42879764 31.78641649 174.93172142 34.35504813 174.43372917 36.92350197 C173.63339956 41.05160291 172.83828204 45.18069818 172.04408264 49.3099823 C169.78590428 61.04798916 167.52513076 72.78548212 165.25024414 84.52026367 C163.58315369 93.12237531 161.92479445 101.72613594 160.27734375 110.33203125 C160.14244144 111.03652358 160.00753913 111.7410159 159.86854887 112.46685648 C154.30340583 141.56188028 149.55264276 170.72337563 145 200 C127.51 200 110.02 200 92 200 C92.33 195.38 92.66 190.76 93 186 C93.19230793 183.04178169 93.38236647 180.08391467 93.5625 177.125 C93.62727539 176.07505859 93.62727539 176.07505859 93.69335938 175.00390625 C93.79617708 173.33597463 93.89818742 171.66799327 94 170 C93.45472656 170.6290625 92.90945313 171.258125 92.34765625 171.90625 C77.59711071 188.64874956 58.51298534 202.63352386 35.47119141 204.16845703 C18.67798124 204.87744435 4.31084496 203.65710606 -9.1875 192.8125 C-18.68647048 184.05003022 -23.3387267 170.83037164 -24.19287109 158.1328125 C-24.28334328 154.75518426 -24.33499503 151.37860184 -24.375 148 C-24.41238281 146.89527344 -24.44976563 145.79054687 -24.48828125 144.65234375 C-24.62945293 130.23714716 -21.58342232 116.12268069 -19 102 C-18.83153061 101.07733841 -18.66306122 100.15467682 -18.48948669 99.20405579 C-15.6520272 83.68030344 -12.75593458 68.1676056 -9.84899902 52.65673828 C-8.53628425 45.64816401 -7.22800979 38.63875957 -5.91895294 31.62950134 C-3.94928799 21.08570977 -1.97414095 10.54295884 0 0 Z " fill="#E96166" transform="translate(1132,79)"/>
<path d="M0 0 C0.71302164 0.00291284 1.42604329 0.00582568 2.16067165 0.00882679 C2.91289971 0.00797237 3.66512777 0.00711794 4.44015062 0.00623763 C6.97986272 0.00458057 9.51950987 0.01010786 12.05921596 0.01555592 C13.87214828 0.01583777 15.68508071 0.0156801 17.49801296 0.01511341 C22.43582271 0.01482535 27.37360838 0.02072349 32.31141251 0.02768737 C37.465744 0.03391945 42.62007599 0.03452459 47.77441067 0.03571278 C57.54210649 0.03882653 67.30979119 0.0470405 77.0774821 0.05706227 C88.19458369 0.06822206 99.31168579 0.07373352 110.42879158 0.0787577 C133.30422243 0.08922308 156.17964338 0.10682336 179.05506557 0.12908131 C178.91285487 2.20471939 178.76564872 4.28001561 178.61634487 6.35515553 C178.53490734 7.51087055 178.45346981 8.66658558 178.36956447 9.85732228 C176.72474063 26.96856576 167.7374114 40.22470259 156.05506557 52.12908131 C155.40022182 52.81099537 154.74537807 53.49290943 154.07069057 54.19548756 C150.72158498 57.62908893 147.18747385 60.78554215 143.55506557 63.91423756 C140.16075066 66.92138842 136.86169331 70.02613148 133.55506557 73.12908131 C129.14434103 77.26541089 124.7163714 81.35543542 120.13319057 85.30095631 C116.68760429 88.33203597 113.33818467 91.46734582 109.97254604 94.58660084 C106.68951266 97.62693814 103.38813054 100.64343679 100.05506557 103.62908131 C96.1884399 107.09397964 92.36492771 110.60212699 88.55506557 114.12908131 C83.93156456 118.40885755 79.2741417 122.64666786 74.58240932 126.85173756 C70.79869039 130.26117826 67.05242497 133.71105732 63.30506557 137.16033131 C58.91067513 141.17443796 54.47899096 145.14754846 50.05506557 149.12908131 C100.05006557 149.62408131 100.05006557 149.62408131 151.05506557 150.12908131 C149.87627199 157.20184281 148.70540902 164.16206486 147.14490932 171.14080006 C146.88635914 172.31035992 146.88635914 172.31035992 146.62258571 173.50354725 C146.26367818 175.12280805 145.90319831 176.74172113 145.54114956 178.36028248 C144.98529011 180.84915737 144.43692804 183.33961057 143.88904995 185.83025318 C143.53727978 187.41303408 143.18508258 188.99572014 142.83240932 190.57830006 C142.58707706 191.69527523 142.58707706 191.69527523 142.33678859 192.83481556 C141.16990883 198.01423805 141.16990883 198.01423805 140.05506557 199.12908131 C137.67698757 199.22672966 135.32799429 199.25905263 132.94945949 199.24933583 C132.19723143 199.25019025 131.44500337 199.25104468 130.66998053 199.25192499 C128.13026842 199.25358205 125.59062127 199.24805476 123.05091518 199.2426067 C121.23798287 199.24232485 119.42505043 199.24248252 117.61211818 199.2430492 C112.67430844 199.24333727 107.73652276 199.23743912 102.79871863 199.23047525 C97.64438714 199.22424317 92.49005516 199.22363803 87.33572048 199.22244984 C77.56802465 199.21933609 67.80033996 199.21112212 58.03264904 199.20110035 C46.91554745 199.18994056 35.79844535 199.1844291 24.68133956 199.17940491 C1.80590872 199.16893954 -21.06951223 199.15133926 -43.94493443 199.12908131 C-43.96296424 197.21912281 -43.97578946 195.30911475 -43.98643833 193.39910084 C-43.9941425 192.33547322 -44.00184666 191.27184559 -44.00978428 190.17598683 C-43.54650134 168.40910124 -28.63501843 154.27102785 -13.94493443 140.12908131 C-12.02154794 138.38486961 -10.07085339 136.6832922 -8.09727818 134.99626881 C-5.37386278 132.63366888 -2.72182635 130.19614129 -0.06993443 127.75408131 C6.06916079 122.106614 12.26673174 116.52636132 18.47694057 110.95720631 C23.06954662 106.83263655 27.63686006 102.68286238 32.18006557 98.50408131 C35.41723774 95.5268985 38.66644286 92.56955275 41.99256557 89.69158131 C46.17616415 86.06696042 50.21941167 82.29523063 54.27747768 78.5316692 C57.76443317 75.30356846 61.29936894 72.14621195 64.89490932 69.03923756 C68.39526498 65.94398635 71.80891261 62.75436439 75.22498745 59.56658131 C79.0897808 55.97341955 83.03973602 52.57079235 87.05506557 49.12908131 C53.72506557 48.79908131 20.39506557 48.46908131 -13.94493443 48.12908131 C-11.63515482 31.96062403 -11.63515482 31.96062403 -10.47227818 25.57830006 C-10.34430348 24.86801152 -10.21632878 24.15772297 -10.08447605 23.42591053 C-9.81947561 21.95994738 -9.55316563 20.49422031 -9.2855106 19.02873951 C-8.8747903 16.77462891 -8.47125192 14.51930091 -8.0679813 12.26384693 C-7.80734013 10.82692054 -7.54628871 9.39006849 -7.28477818 7.95330006 C-7.0513773 6.66512379 -6.81797642 5.37694752 -6.57750279 4.04973561 C-5.57814654 -0.56442833 -4.44713563 0.01377192 0 0 Z " fill="#E96267" transform="translate(1334.9449344277382,79.8709186911583)"/>
<path d="M0 0 C0.66 0.33 1.32 0.66 2 1 C1.73445313 1.71285156 1.46890625 2.42570312 1.1953125 3.16015625 C-1.16413572 9.50683047 -1.16413572 9.50683047 -3.0625 16 C-4 19 -4 19 -5.484375 20.19140625 C-7.8706376 23.03893095 -7.84799895 26.36337341 -8.1875 29.9375 C-8.26790527 30.691521 -8.34831055 31.44554199 -8.43115234 32.22241211 C-9.054578 38.4865772 -9.21825378 44.70701589 -9 51 C-4.89776415 52.01540112 -4.89776415 52.01540112 -1 51 C-0.43421116 48.57998516 -0.43421116 48.57998516 -0.1484375 45.64453125 C-0.01953125 44.54689453 0.109375 43.44925781 0.2421875 42.31835938 C0.43167969 40.58295898 0.43167969 40.58295898 0.625 38.8125 C0.7590625 37.67490234 0.893125 36.53730469 1.03125 35.36523438 C1.62138776 30.20755081 2.07253688 25.19702541 2 20 C1.01 19.67 0.02 19.34 -1 19 C-0.0122936 12.57409836 1.13609892 6.85797948 4 1 C12.59356088 3.53167814 21.11510914 6.27030425 29.63476562 9.0390625 C36.37843872 11.2136377 43.14637713 13.20121144 50 15 C50 15.66 50 16.32 50 17 C48.85423404 18.04755745 47.6560644 19.03809717 46.4375 20 C37.33754478 27.79766481 32.73268995 37.80193014 29 49 C30.2890625 48.84273437 31.578125 48.68546875 32.90625 48.5234375 C36.95438132 48.07276663 40.97008532 47.84520465 45.03930664 47.7097168 C68.46743988 46.90862621 68.46743988 46.90862621 89.5 37.6875 C93.27325701 33.63124872 95.04220338 30.60605872 94.953125 25.10546875 C94.71569624 22.38551279 94.40518947 19.69963586 94 17 C94.91136719 16.78085938 95.82273438 16.56171875 96.76171875 16.3359375 C112.17901088 12.58179246 127.54332869 8.54103295 142.3828125 2.8828125 C145 2 145 2 148 2 C153.76467898 19.69285122 153.52074228 37.12465805 145 54 C135.65739873 71.37444952 117.82012065 79.91996547 99.734375 85.4609375 C90.01640091 88.21290028 80.00944549 89.7444815 70 91 C68.76334595 91.15795044 68.76334595 91.15795044 67.50170898 91.3190918 C58.46394116 92.3084512 49.39041957 92.10992531 40.3125 92.0625 C38.62825654 92.05747338 36.94401163 92.05291253 35.25976562 92.04882812 C31.17314047 92.03791827 27.08658672 92.02071821 23 92 C23.56907753 94.3792284 24.15461379 96.75234153 24.75 99.125 C24.90726563 99.79015625 25.06453125 100.4553125 25.2265625 101.140625 C27.43018577 109.78560859 32.45890895 115.30178867 39.73828125 120.16015625 C58.02415533 130.45819669 84.09477993 126.8767042 103.46484375 121.5703125 C108.34547355 120.15279783 113.18018971 118.610954 118 117 C119.59405149 116.46867789 121.18812905 115.937434 122.78222656 115.40625 C124.18815865 114.93752281 125.59408564 114.46878035 127 114 C129.2858893 118.92628903 131.56434223 123.85592175 133.8359375 128.78881836 C134.60993692 130.4668452 135.38596894 132.14393603 136.1640625 133.82006836 C137.28138906 136.22787858 138.39138998 138.63894771 139.5 141.05078125 C139.84998047 141.80087967 140.19996094 142.55097809 140.56054688 143.32380676 C143 148.65838488 143 148.65838488 143 152 C102.28031733 169.91666037 54.99490048 182.17718985 11.4296875 166.4375 C-6.39477936 158.96665284 -19.83948994 145.75101691 -27.4609375 128.01953125 C-36.12970461 106.39015957 -36.19295723 81.47332895 -31 59 C-30.8443457 58.31309082 -30.68869141 57.62618164 -30.52832031 56.91845703 C-25.46542122 35.48955976 -14.71361335 16.26241476 0 0 Z " fill="#FEFEFE" transform="translate(34,110)"/>
<path d="M0 0 C2.63970288 2.17985514 4.27046642 3.81194963 6.1875 6.6875 C6.3125 9.875 6.3125 9.875 6.1875 12.6875 C-2.79946209 17.53886892 -11.94556317 21.07849749 -21.625 24.25 C-22.34195038 24.48773132 -23.05890076 24.72546265 -23.7975769 24.97039795 C-69.17880467 39.9658026 -113.38385554 37.33066354 -156.6875 16.0625 C-161.74891341 13.51313944 -167.52491776 10.54879387 -169.9375 5.1875 C-169.75594979 1.55649587 -168.29305836 0.32137337 -165.8125 -2.3125 C-163.40436131 -4.00081462 -160.86633764 -5.35016104 -158.25 -6.6875 C-157.49968506 -7.07470215 -156.74937012 -7.4619043 -155.97631836 -7.86083984 C-105.15694175 -33.4098962 -46.85987582 -36.43919522 0 0 Z " fill="#E96166" transform="translate(188.8125,86.3125)"/>
<path d="M0 0 C7.10165309 4.99251552 13.0256401 11.40450602 15.890625 19.7109375 C16.44751783 23.7260923 16.45074251 27.66302504 16.390625 31.7109375 C16.41382813 33.27328125 16.41382813 33.27328125 16.4375 34.8671875 C16.38664008 44.93745122 13.06950239 51.25249553 6.3125 58.59375 C-3.00112717 66.73566279 -13.19197289 68.44029352 -25.109375 67.7109375 C-34.94606163 66.19224226 -42.73509107 60.35156695 -48.82421875 52.6171875 C-55.41752127 42.83745611 -55.72750187 31.02660934 -53.51953125 19.6796875 C-50.45296366 10.74848605 -43.19346857 3.46398961 -35.2265625 -1.3515625 C-24.24093822 -6.21604558 -10.3799592 -6.3433084 0 0 Z M-43.109375 11.7109375 C-49.4312275 20.55882936 -50.5631634 29.20894366 -49.109375 39.7109375 C-47.92284091 43.45382551 -46.33840484 46.49054356 -44.109375 49.7109375 C-43.72523437 50.29230469 -43.34109375 50.87367188 -42.9453125 51.47265625 C-38.40179766 57.6079467 -31.50636569 61.33183754 -24.109375 62.7109375 C-15.69118256 63.42846988 -8.35773828 62.91606364 -1.46875 57.71875 C5.84855358 51.36424952 11.20693859 45.42060411 12.2265625 35.4140625 C12.33343956 25.96613076 10.98893316 19.31413819 5.703125 11.4609375 C-1.20376795 4.70753106 -8.52699733 0.4570259 -18.359375 0.3359375 C-28.4004718 0.53013391 -36.54809524 3.98601197 -43.109375 11.7109375 Z " fill="#FFFFFF" transform="translate(1612.109375,86.2890625)"/>
<path d="M0 0 C3.320625 -0.061875 6.64125 -0.12375 10.0625 -0.1875 C11.09511963 -0.21481201 12.12773926 -0.24212402 13.19165039 -0.27026367 C18.91960985 -0.32164789 22.97829505 0.16570438 28 3 C30.47814609 6.40745087 31 8.35056907 31 12.5625 C29.80897005 16.65666545 28.32978856 18.38373756 25 21 C24.01 21 23.02 21 22 21 C22.63808594 21.96421875 23.27617188 22.9284375 23.93359375 23.921875 C24.76852414 25.19772368 25.60314329 26.47377608 26.4375 27.75 C26.85837891 28.38421875 27.27925781 29.0184375 27.71289062 29.671875 C28.11572266 30.290625 28.51855469 30.909375 28.93359375 31.546875 C29.4913147 32.39523926 29.4913147 32.39523926 30.06030273 33.26074219 C31.08131235 35.15049862 31.56432082 36.90392138 32 39 C28.9375 39.6875 28.9375 39.6875 25 39 C22.88366501 36.40507473 21.29784415 33.7235565 19.67578125 30.796875 C17.6201186 27.36597883 15.83482705 24.52232303 11.859375 23.390625 C10.81523438 23.32101563 10.81523438 23.32101563 9.75 23.25 C8.5125 23.1675 7.275 23.085 6 23 C6 28.28 6 33.56 6 39 C4.02 39 2.04 39 0 39 C0 26.13 0 13.26 0 0 Z M6 5 C6 8.96 6 12.92 6 17 C8.43816585 17.0809723 10.87364384 17.14046972 13.3125 17.1875 C14.00279297 17.21263672 14.69308594 17.23777344 15.40429688 17.26367188 C19.40921636 17.33931816 19.40921636 17.33931816 22.94921875 15.67578125 C24.64023279 12.9789596 24.51498204 11.08989223 24 8 C20.10460048 4.89957997 17.07166694 4.66449494 12.1875 4.8125 C11.02605469 4.83957031 9.86460938 4.86664063 8.66796875 4.89453125 C7.78753906 4.92933594 6.90710937 4.96414062 6 5 Z " fill="#FFFFFF" transform="translate(1580,97)"/>
</svg>
