<?xml version="1.0" encoding="UTF-8"?>
<svg version="1.1" xmlns="http://www.w3.org/2000/svg" width="559" height="134">
<path d="M0 0 C1.53921449 4.74667942 0.21090884 8.3148832 -1.4375 12.8125 C-1.80198242 13.85180664 -1.80198242 13.85180664 -2.17382812 14.91210938 C-2.77169616 16.61193025 -3.38438482 18.30652572 -4 20 C-5.093125 19.855625 -6.18625 19.71125 -7.3125 19.5625 C-8.04339844 19.47484375 -8.77429688 19.3871875 -9.52734375 19.296875 C-11.22965091 19.09249057 -12.93017234 18.8728442 -14.62890625 18.640625 C-24.84715716 17.41966757 -33.54324903 18.86439181 -42 25 C-48.73114624 31.14648098 -53.31962866 40.01453256 -54.20654297 49.12060547 C-54.303183 51.39640298 -54.32211068 53.65976796 -54.3125 55.9375 C-54.32861328 56.69740234 -54.34472656 57.45730469 -54.36132812 58.24023438 C-54.36678014 64.62454151 -53.28082753 70.20853944 -49.16796875 75.2421875 C-41.35013431 81.68766047 -35.04868957 82.68573735 -25 82 C-22.26180299 81.48603422 -19.6845028 80.7670008 -17 80 C-15.68 80 -14.36 80 -13 80 C-13.061875 78.989375 -13.12375 77.97875 -13.1875 76.9375 C-13.10704917 61.78592649 -7.88930481 48.14733092 2.57421875 37.19140625 C14.80188585 26.14515626 28.81558374 24.36431303 44.60009766 24.84179688 C49.88856934 25.19041637 54.93357196 26.47188526 60 28 C60.15346338 33.16898305 59.60473423 37.93143733 58.57421875 42.9765625 C58.26969042 44.53748593 57.96575953 46.098526 57.66235352 47.65966797 C57.50276154 48.47062927 57.34316956 49.28159058 57.17874146 50.11712646 C53.79792368 67.37679244 51.43602203 84.46685485 50 102 C43.73 102 37.46 102 31 102 C30.67 98.7 30.34 95.4 30 92 C29.360625 92.886875 28.72125 93.77375 28.0625 94.6875 C23.88384668 99.5878149 19.24427289 102.5433398 12.80859375 103.44921875 C6.17875182 103.67200602 0.28910439 103.30130475 -5 99 C-7.81235756 95.89865332 -9.67541097 92.9737671 -11 89 C-11 92.3 -11 95.6 -11 99 C-25.39149982 105.11145883 -38.94412969 105.52754095 -54 101 C-64.6672448 96.38879908 -71.07691855 89.24287899 -76.04296875 78.80859375 C-78.63858485 71.86499129 -79.17986351 64.32333642 -80 57 C-80.90878906 58.40378906 -80.90878906 58.40378906 -81.8359375 59.8359375 C-86.95445862 67.31969581 -94.03875144 70.6912273 -102.7578125 72.60546875 C-106.81778069 73.09951307 -110.79034537 73.10750043 -114.875 73.0625 C-115.65875 73.05798828 -116.4425 73.05347656 -117.25 73.04882812 C-119.16670014 73.03714093 -121.08336048 73.01920908 -123 73 C-121.28169027 77.49321986 -119.97671749 80.38715766 -115.8125 83 C-105.68364995 85.65674755 -96.79051781 82.69089078 -87 80 C-86.1319092 81.91040052 -85.28098217 83.82860737 -84.4375 85.75 C-83.96183594 86.81734375 -83.48617187 87.8846875 -82.99609375 88.984375 C-82 92 -82 92 -82.00390625 94.2265625 C-84.36130075 98.42364917 -90.69620498 99.49632841 -95 101 C-95.71414062 101.25136719 -96.42828125 101.50273438 -97.1640625 101.76171875 C-107.21791634 104.58560997 -120.66865128 104.77299389 -130.09375 100.125 C-136.98660461 96.0570858 -140.57010132 90.88115355 -143.3125 83.4375 C-146.42112636 68.22316522 -143.1647783 53.92756564 -135 41 C-134.01755155 39.65368175 -133.02323436 38.31558703 -132 37 C-133.65 35.68 -135.3 34.36 -137 33 C-136.83203125 30.6953125 -136.83203125 30.6953125 -136 28 C-125.91255943 20.56714905 -112.29009338 17.82485163 -100 19 C-90.97316648 20.48589852 -82.61220208 24.04377868 -76.375 30.875 C-75.694375 31.926875 -75.694375 31.926875 -75 33 C-74.731875 32.39414062 -74.46375 31.78828125 -74.1875 31.1640625 C-67.2611931 16.35452473 -56.44369473 5.63919144 -41 0 C-27.96950704 -4.62312197 -13.00085908 -4.81089059 0 0 Z M-77 35 C-80.465 36.485 -80.465 36.485 -84 38 C-82.68 38.33 -81.36 38.66 -80 39 C-79.67 41.97 -79.34 44.94 -79 48 C-78.67 48 -78.34 48 -78 48 C-77.63447197 46.58622218 -77.28304505 45.16879424 -76.9375 43.75 C-76.74027344 42.96109375 -76.54304688 42.1721875 -76.33984375 41.359375 C-75.98502733 38.89605178 -76.23122456 37.34395868 -77 35 Z M-106.6875 42.1875 C-107.99074219 42.22230469 -109.29398438 42.25710937 -110.63671875 42.29296875 C-114.11874869 42.65233828 -114.11874869 42.65233828 -115.8203125 45.28125 C-116.20960937 46.1784375 -116.59890625 47.075625 -117 48 C-117.38542969 48.73863281 -117.77085938 49.47726563 -118.16796875 50.23828125 C-118.50441406 50.92277344 -118.84085938 51.60726562 -119.1875 52.3125 C-119.53167969 53.00988281 -119.87585938 53.70726562 -120.23046875 54.42578125 C-120.61138672 55.20501953 -120.61138672 55.20501953 -121 56 C-113.82727679 56.25616869 -105.6085302 56.08273049 -100 51 C-99.58274322 47.37400578 -99.58274322 47.37400578 -100 44 C-96.535 43.505 -96.535 43.505 -93 43 C-93 42.67 -93 42.34 -93 42 C-97.56679443 41.9787591 -102.12349078 42.0194718 -106.6875 42.1875 Z M15.578125 52.67578125 C10.47175803 60.19629695 8.57043238 69.01046667 10 78 C11.1701719 80.22800729 12.21484422 82.21484422 14 84 C18.26650351 84.49228887 20.25872751 84.58612243 23.6875 81.875 C27.87548365 76.66831763 30.50010289 72.27689762 32.125 65.75 C32.28967773 65.09467285 32.45435547 64.4393457 32.62402344 63.76416016 C35.24283385 53.50172008 35.24283385 53.50172008 36 43 C26.74610018 42.35060352 21.37601398 45.61123634 15.578125 52.67578125 Z M-133 46 C-134.25949049 47.03406673 -134.25949049 47.03406673 -134.09765625 49.28515625 C-134.08605469 50.20167969 -134.07445312 51.11820313 -134.0625 52.0625 C-134.05347656 52.98160156 -134.04445312 53.90070312 -134.03515625 54.84765625 C-134.02355469 55.55792969 -134.01195312 56.26820312 -134 57 C-133.34 57 -132.68 57 -132 57 C-131.67 53.37 -131.34 49.74 -131 46 C-131.66 46 -132.32 46 -133 46 Z M-13 81 C-12 83 -12 83 -12 83 Z " fill="#E96166" transform="translate(144,3)"/>
<path d="M0 0 C2.74760792 1.99201574 4.52644215 4.06361585 6.5 6.8125 C7.49 7.8025 7.49 7.8025 8.5 8.8125 C9.24443359 8.10673828 9.24443359 8.10673828 10.00390625 7.38671875 C17.10196369 0.8812885 22.80904685 -1.83239841 32.55859375 -1.52734375 C36.94602212 -1.02042972 40.06391553 0.032065 43.5 2.8125 C47.22679935 8.06151116 48.13632032 13.13365358 47.96484375 19.44140625 C47.95307602 20.25573624 47.94130829 21.07006622 47.92918396 21.90907288 C47.63868407 31.99305705 45.85045731 41.84445547 44.0625 51.75 C43.73230048 53.65274831 43.40351828 55.55574314 43.07617188 57.45898438 C42.4778833 60.90900441 41.87557649 64.35815866 41.25610352 67.80444336 C41.13396988 68.48437851 41.01183624 69.16431366 40.88600159 69.86485291 C40.49025261 71.86168237 39.99372207 73.83761173 39.5 75.8125 C32.57 75.8125 25.64 75.8125 18.5 75.8125 C18.94271013 68.71188943 19.76331793 61.79422529 20.98046875 54.79296875 C21.11736115 53.99907745 21.25425354 53.20518616 21.39529419 52.38723755 C21.96766862 49.08614449 22.54506364 45.78619061 23.14233398 42.48950195 C23.58151808 40.0512072 24.00110056 37.61016385 24.41796875 35.16796875 C24.55639694 34.43241257 24.69482513 33.69685638 24.83744812 32.93901062 C25.66951983 27.95212868 25.20900754 24.57919677 23.5 19.8125 C20.55896757 18.88817552 18.94030122 18.65839457 16 19.6875 C7.5416441 26.87710251 6.45467528 38.48263241 4.5 48.8125 C4.28279297 49.95525391 4.06558594 51.09800781 3.84179688 52.27539062 C2.35976261 60.11489779 0.91902092 67.96135967 -0.5 75.8125 C-7.43 75.8125 -14.36 75.8125 -21.5 75.8125 C-21.04661364 69.26164841 -20.23050609 62.8861458 -19.0546875 56.43359375 C-18.92016174 55.69033844 -18.78563599 54.94708313 -18.64703369 54.18130493 C-18.08461941 51.09124015 -17.51744095 48.00226137 -16.93310547 44.91625977 C-15.31775734 36.33867098 -13.98380985 28.53495023 -15.5 19.8125 C-18.20590396 18.85882548 -18.20590396 18.85882548 -21.5 18.8125 C-27.84791433 22.43987962 -29.99959106 28.15854485 -32.5 34.8125 C-33.64128574 39.06762305 -34.44023488 43.34771286 -35.1875 47.6875 C-35.38666016 48.76902344 -35.58582031 49.85054687 -35.79101562 50.96484375 C-37.0156015 57.70207356 -38.07138598 64.45720275 -39.04614258 71.23486328 C-39.5 73.8125 -39.5 73.8125 -40.5 75.8125 C-47.43 75.8125 -54.36 75.8125 -61.5 75.8125 C-59.45531949 61.21039483 -57.24994198 46.64335442 -54.91064453 32.08569336 C-54.36615508 28.69491881 -53.82551376 25.3035446 -53.28515625 21.91210938 C-52.93772563 19.74215136 -52.59007784 17.57222811 -52.2421875 15.40234375 C-52.00156082 13.89159523 -52.00156082 13.89159523 -51.756073 12.35032654 C-51.53046188 10.95089561 -51.53046188 10.95089561 -51.30029297 9.52319336 C-51.16944305 8.70717148 -51.03859314 7.8911496 -50.90377808 7.05039978 C-50.52534381 4.95296553 -50.01691636 2.88016545 -49.5 0.8125 C-43.23 0.8125 -36.96 0.8125 -30.5 0.8125 C-30.5 3.1225 -30.5 5.4325 -30.5 7.8125 C-29.91992188 7.33039062 -29.33984375 6.84828125 -28.7421875 6.3515625 C-20.00390887 -0.71404233 -11.14364586 -3.78087984 0 0 Z " fill="#E96166" transform="translate(259.5,29.1875)"/>
<path d="M0 0 C6.11518548 3.64876972 9.42357159 9.05714006 11.5 15.75 C14.7204611 29.68616204 12.17534845 44.15510894 5.421875 56.67578125 C-0.65891506 66.23319693 -8.32890089 73.48742752 -19.375 76.5 C-22.10789335 76.6856511 -24.71104149 76.78054855 -27.4375 76.75 C-28.13166016 76.75773437 -28.82582031 76.76546875 -29.54101562 76.7734375 C-33.59350071 76.75804344 -36.72989452 76.29057813 -40.375 74.5 C-40.42325928 75.0986084 -40.47151855 75.6972168 -40.52124023 76.31396484 C-41.08973225 82.69021084 -42.12542099 88.86364675 -43.4375 95.125 C-44.076875 98.21875 -44.71625 101.3125 -45.375 104.5 C-52.635 104.5 -59.895 104.5 -67.375 104.5 C-67.07319824 102.73519287 -66.77139648 100.97038574 -66.46044922 99.15209961 C-65.05301782 90.9145704 -63.64994767 82.67630408 -62.25 74.4375 C-62.12448635 73.69886341 -61.9989727 72.96022682 -61.86965561 72.19920731 C-57.81589382 48.33182567 -53.92456087 24.44830305 -50.375 0.5 C-43.775 0.5 -37.175 0.5 -30.375 0.5 C-30.375 2.81 -30.375 5.12 -30.375 7.5 C-29.73884766 6.90251953 -29.73884766 6.90251953 -29.08984375 6.29296875 C-20.88338071 -1.11990226 -10.7151978 -4.62748465 0 0 Z M-29.375 24.5 C-34.96197159 32.88889691 -37.54008044 46.59681625 -36.375 56.5 C-32.84803078 58.85131281 -30.93093234 59.11352729 -26.78515625 58.9921875 C-22.10207666 58.03583737 -19.26767798 55.16784005 -16.375 51.5 C-12.38351919 44.46786259 -10.23692236 38.13023659 -10.125 30.0625 C-10.09921875 28.95003906 -10.0734375 27.83757813 -10.046875 26.69140625 C-10.40996491 23.15992467 -11.26413086 21.3230313 -13.375 18.5 C-20.32815725 15.02342137 -24.92119188 19.37859751 -29.375 24.5 Z " fill="#E96166" transform="translate(366.375,29.5)"/>
<path d="M0 0 C1.78515625 1.52734375 1.78515625 1.52734375 3 3 C2.9375 5.5625 2.9375 5.5625 2 8 C-0.0625 9.3125 -0.0625 9.3125 -2 10 C-1.505 10.928125 -1.505 10.928125 -1 11.875 C1.01194838 18.16233868 0.80484912 25.0321497 -1.83984375 31.12109375 C-6.17010198 38.13407088 -13.30081219 41.7554092 -21 44 C-25.98970025 45.08440929 -30.79869932 45.11842535 -35.875 45.0625 C-36.65875 45.05798828 -37.4425 45.05347656 -38.25 45.04882812 C-40.16670014 45.03714093 -42.08336048 45.01920908 -44 45 C-42.28169027 49.49321986 -40.97671749 52.38715766 -36.8125 55 C-26.68364995 57.65674755 -17.79051781 54.69089078 -8 52 C-7.1319092 53.91040052 -6.28098217 55.82860737 -5.4375 57.75 C-4.96183594 58.81734375 -4.48617187 59.8846875 -3.99609375 60.984375 C-3 64 -3 64 -3.00390625 66.2265625 C-5.36130075 70.42364917 -11.69620498 71.49632841 -16 73 C-16.71414062 73.25136719 -17.42828125 73.50273438 -18.1640625 73.76171875 C-28.21791634 76.58560997 -41.66865128 76.77299389 -51.09375 72.125 C-57.98660461 68.0570858 -61.57010132 62.88115355 -64.3125 55.4375 C-67.42112636 40.22316522 -64.1647783 25.92756564 -56 13 C-55.01755155 11.65368175 -54.02323436 10.31558703 -53 9 C-54.65 7.68 -56.3 6.36 -58 5 C-57.83203125 2.6953125 -57.83203125 2.6953125 -57 0 C-39.96669912 -12.55085328 -16.82415271 -12.05312433 0 0 Z M-27.6875 14.1875 C-28.99074219 14.22230469 -30.29398438 14.25710937 -31.63671875 14.29296875 C-35.11874869 14.65233828 -35.11874869 14.65233828 -36.8203125 17.28125 C-37.20960937 18.1784375 -37.59890625 19.075625 -38 20 C-38.38542969 20.73863281 -38.77085938 21.47726563 -39.16796875 22.23828125 C-39.50441406 22.92277344 -39.84085938 23.60726562 -40.1875 24.3125 C-40.53167969 25.00988281 -40.87585938 25.70726562 -41.23046875 26.42578125 C-41.61138672 27.20501953 -41.61138672 27.20501953 -42 28 C-34.82727679 28.25616869 -26.6085302 28.08273049 -21 23 C-20.58274322 19.37400578 -20.58274322 19.37400578 -21 16 C-17.535 15.505 -17.535 15.505 -14 15 C-14 14.67 -14 14.34 -14 14 C-18.56679443 13.9787591 -23.12349078 14.0194718 -27.6875 14.1875 Z M-54 18 C-55.25949049 19.03406673 -55.25949049 19.03406673 -55.09765625 21.28515625 C-55.08605469 22.20167969 -55.07445312 23.11820313 -55.0625 24.0625 C-55.05347656 24.98160156 -55.04445313 25.90070312 -55.03515625 26.84765625 C-55.02355469 27.55792969 -55.01195312 28.26820312 -55 29 C-54.34 29 -53.68 29 -53 29 C-52.67 25.37 -52.34 21.74 -52 18 C-52.66 18 -53.32 18 -54 18 Z " fill="#464342" transform="translate(65,31)"/>
<path d="M0 0 C7.26 0 14.52 0 22 0 C21.39930773 4.00054952 20.79491618 8.00046964 20.1875 12 C19.91836792 13.78410278 19.91836792 13.78410278 19.64379883 15.60424805 C18.65723199 22.05218267 17.54038979 28.43296689 16.1875 34.8125 C14.819804 41.73186524 15.01064179 48.03873258 16 55 C20.60819631 56.00524232 20.60819631 56.00524232 25.0625 54.6875 C31.96851806 48.36922816 33.963343 39.40665558 35.625 30.5 C35.82955811 29.46423828 36.03411621 28.42847656 36.24487305 27.36132812 C38.01616861 18.27058897 39.55169851 9.14716731 41 0 C48.26 0 55.52 0 63 0 C62.3369693 8.79752671 61.01915757 17.38925711 59.49609375 26.07421875 C59.25051916 27.49332705 59.00533261 28.91250254 58.76051331 30.33174133 C58.12157747 34.02959683 57.47744735 37.7265283 56.83215332 41.42327881 C56.17201209 45.21066812 55.51689495 48.9989261 54.86132812 52.78710938 C53.579076 60.19225685 52.29085918 67.5963471 51 75 C44.73 75 38.46 75 32 75 C31.505 71.04 31.505 71.04 31 67 C30.57589844 67.39832031 30.15179688 67.79664062 29.71484375 68.20703125 C22.36533072 74.84582214 16.91834765 76.53850762 7.03125 76.2890625 C2.21027173 75.82933004 -0.56168807 74.15864017 -4.25 71.1875 C-8.20608378 66.24239528 -8.36949991 60.5783176 -8.33984375 54.46875 C-8.33709946 53.64467651 -8.33435516 52.82060303 -8.33152771 51.97155762 C-8.15153372 41.9828584 -6.37363712 32.2986484 -4.5625 22.5 C-4.23228776 20.63697274 -3.9035056 18.77369142 -3.57617188 16.91015625 C-1.22876528 3.68629585 -1.22876528 3.68629585 0 0 Z " fill="#E96166" transform="translate(388,30)"/>
<path d="M0 0 C21.12 0 42.24 0 64 0 C64 15.01116652 53.97723299 23.08546161 43.99609375 33.1015625 C41.48116135 35.61401825 38.95967432 38.11981757 36.4375 40.625 C35.1293222 41.92814946 33.82137783 43.2315333 32.51367188 44.53515625 C29.34554835 47.69324772 26.17271134 50.84649135 23 54 C38.84 54.495 38.84 54.495 55 55 C54.525625 57.743125 54.05125 60.48625 53.5625 63.3125 C53.41498291 64.17270752 53.26746582 65.03291504 53.11547852 65.91918945 C52.99615967 66.60198975 52.87684082 67.28479004 52.75390625 67.98828125 C52.63345947 68.68477783 52.5130127 69.38127441 52.38891602 70.09887695 C52 72 52 72 51 75 C29.88 75 8.76 75 -13 75 C-13 61.65902213 -9.13214114 56.83151451 -0.125 47.8125 C4.05011188 43.71840582 8.31272977 39.76885754 12.78125 35.99609375 C18.42115319 30.92216676 23.66560272 25.38568956 29 20 C18.44 19.67 7.88 19.34 -3 19 C-2 7 -2 7 0 0 Z " fill="#E96166" transform="translate(456,30)"/>
<path d="M0 0 C1.84375 1.375 1.84375 1.375 3 3 C3.02734375 5.51953125 3.02734375 5.51953125 2 8 C-9.41340039 15.27674786 -24.9916037 16.63820297 -38.0546875 14.5 C-44.9791592 12.77378609 -52.87199602 10.12800398 -58 5 C-57.95703125 2.5703125 -57.95703125 2.5703125 -57 0 C-39.96669912 -12.55085328 -16.82415271 -12.05312433 0 0 Z " fill="#E96166" transform="translate(65,31)"/>
<path d="M0 0 C2.90527374 1.87373834 5.42661541 3.85323082 7 7 C8.04817082 17.84108101 8.04817082 17.84108101 5.953125 22.15625 C3.58951975 24.9925763 1.5030024 26.86167058 -2.20703125 27.203125 C-11.29667745 27.36665687 -11.29667745 27.36665687 -15 24 C-18.52519397 19.01610508 -18.84455406 13.90228122 -18 8 C-16.10731344 3.83608958 -14.63063839 2.36886396 -10.6875 0.0625 C-6.46863579 -1.15310494 -4.20974868 -1.22465416 0 0 Z M-13.875 6.625 C-15.65207478 10.37660231 -15.64648443 13.93223279 -15 18 C-13.06793925 21.49257135 -11.63466845 22.68941756 -8.0625 24.4375 C-4.56520487 25.07986033 -3.05876094 24.74786339 0 23 C0.33 22.34 0.66 21.68 1 21 C0.01 21 -0.98 21 -2 21 C-2.268125 20.195625 -2.53625 19.39125 -2.8125 18.5625 C-3.204375 17.716875 -3.59625 16.87125 -4 16 C-4.99 15.67 -5.98 15.34 -7 15 C-7 16.98 -7 18.96 -7 21 C-7.99 21 -8.98 21 -10 21 C-10 15.72 -10 10.44 -10 5 C-1.125 5.875 -1.125 5.875 0 7 C0.23529412 12.52941176 0.23529412 12.52941176 -1 15 C0.39092892 17.62387135 0.39092892 17.62387135 2 20 C4.01247413 18.35438313 4.93449616 17.54654767 5.25 14.9140625 C4.79151582 10.71606676 4.3429756 8.4573008 1.75 5 C-4.23091341 0.6502448 -8.37960001 1.86232001 -13.875 6.625 Z M-7 8 C-6.67 9.32 -6.34 10.64 -6 12 C-4.68 11.67 -3.36 11.34 -2 11 C-2.33 10.01 -2.66 9.02 -3 8 C-4.32 8 -5.64 8 -7 8 Z " fill="#454140" transform="translate(552,31)"/>
</svg>
