<svg id="Layer_1" data-name="Layer 1" xmlns="http://www.w3.org/2000/svg" viewBox="0 0 134 32"><title>light</title><path d="M62.83,7.7A5.16,5.16,0,0,1,64,9.77l.18-.21a6.71,6.71,0,0,1,4.69-2.82,4.52,4.52,0,0,1,3.45,1,4.36,4.36,0,0,1,1.14,2.39l0,.25a12.05,12.05,0,0,1-.06,3l0,.26c-.14,1.09-.32,2.16-.51,3.23,0,.22-.08.45-.11.67l-.27,1.55c-.11.59-.21,1.18-.31,1.77s-.17,1-.26,1.51l-.06.33-.15.9,0,.27,0,.25,0,.22-.12.55H66.76c0-.69.12-1.35.23-2l.05-.27.15-.87c0-.21.07-.41.1-.62.1-.53.19-1.07.28-1.6.15-.86.29-1.72.44-2.57l.15-.9.09-.55,0-.25a5.61,5.61,0,0,0-.14-3.67A1.35,1.35,0,0,0,67,11.07a2.37,2.37,0,0,0-1.73.83,9.08,9.08,0,0,0-1.79,3.89l-.06.21c-.2.87-.35,1.75-.5,2.63l-.09.54-.24,1.39c-.12.75-.25,1.5-.38,2.25,0,.26-.09.52-.13.78l-.08.47,0,.22c-.08.5-.08.5-.17.6H57.14c.13-1.12.32-2.22.52-3.33l.1-.6L58,19.38c.15-.84.29-1.68.44-2.52l.15-.87.09-.54,0-.24a6,6,0,0,0,0-3.52A1.83,1.83,0,0,0,58,11.1a2.24,2.24,0,0,0-1.81.45c-1.89,1.67-2.42,4.48-2.82,7l-.09.55c-.08.47-.16.95-.23,1.42-.13.77-.26,1.53-.38,2.3-.05.26-.09.53-.13.8l-.08.48,0,.22c-.08.51-.08.51-.18.61H47.6A17.92,17.92,0,0,1,47.87,23l.08-.51c0-.18.07-.36.1-.54.06-.39.13-.77.2-1.16.18-1.09.37-2.19.56-3.28.14-.8.28-1.6.41-2.4l0-.2q.52-3.06.94-6.15l0-.27c0-.16,0-.33.07-.5l0-.22,0-.19a3,3,0,0,1,.11-.43h4.2c-.05.89-.1,1.78-.17,2.67l.13-.18a6.65,6.65,0,0,1,4.26-2.81A4.89,4.89,0,0,1,62.83,7.7Z" transform="translate(-0.01 0)" fill="#e96166"/><path d="M88.31,7.63a7,7,0,0,1,2.27,4.47,13.84,13.84,0,0,1-2.12,9c-.18.25-.37.48-.56.72l-.17.22a8.42,8.42,0,0,1-5.51,3.15c-.35,0-.7,0-1,0h-.29a5.71,5.71,0,0,1-2.37-.48l-.23-.09-.17-.08,0,.28c-.15.86-.3,1.71-.46,2.57l-.24,1.32c-.07.42-.15.85-.22,1.27l-.09.49-.12.68,0,.21c-.08.46-.08.46-.18.56H71.86c.31-1.89.64-3.78,1-5.67.09-.53.18-1.06.28-1.58l0-.28.1-.55c.21-1.22.43-2.44.64-3.67,1-5.93,1-5.93,1.92-11.89L76,7.1h4.45l-.25,2.4.35-.44C82.39,6.81,85.89,5.81,88.31,7.63ZM81,12.48c-1.34,1.92-1.63,4.25-2,6.55l0,.28,0,.25,0,.22a3.54,3.54,0,0,0,0,.65,2.75,2.75,0,0,0,1.79.83A3.6,3.6,0,0,0,83.38,20a9.73,9.73,0,0,0,2.16-6.36,3.37,3.37,0,0,0-.88-2.24C83.4,10.35,81.87,11.36,81,12.48Z" transform="translate(-0.01 0)" fill="#e96166"/><path d="M48.42,7.46l.33.09a17.12,17.12,0,0,1-.24,1.75l0,.25c0,.18-.06.35-.1.53s-.11.56-.16.85c-.15.8-.3,1.6-.46,2.4-.62,3.22-.62,3.22-1.05,6.48l0,.25c-.16,1.6-.22,3.21-.3,4.82H41.92c0-1.84,0-1.84,0-2.55v-.22l0-.52-.09.17A6.86,6.86,0,0,1,38,25.13a5.16,5.16,0,0,1-4.07-.61,5.43,5.43,0,0,1-2-2.75l-.11-.29a12.82,12.82,0,0,1,1-8.42,11.16,11.16,0,0,1,6.54-5.8,14.64,14.64,0,0,1,1.94-.43l.17,0A17.39,17.39,0,0,1,48.42,7.46Zm-9.71,5.06-.16.17a8.81,8.81,0,0,0-1.89,5.7,3.21,3.21,0,0,0,.82,2.22A2,2,0,0,0,39,21a4.23,4.23,0,0,0,2.32-2.2A18.51,18.51,0,0,0,42.74,14l.07-.37.18-.91c0-.18.07-.35.1-.53l.06-.32.06-.28a1.72,1.72,0,0,0-.06-.71A4.57,4.57,0,0,0,38.71,12.52Z" transform="translate(-0.01 0)" fill="#e96166"/><path d="M34.6,1.06c-.21.92-.51,1.82-.8,2.72l-.15.48c-.12.38-.24.77-.37,1.15l-.15,0A12.58,12.58,0,0,0,31.64,5l-.21,0a8.75,8.75,0,0,0-6.87,1.21,9.46,9.46,0,0,0-3.37,6,9.14,9.14,0,0,0,.76,6.1,5.37,5.37,0,0,0,3.54,2.36A10.92,10.92,0,0,0,30.8,20a.91.91,0,0,1,.43-.09l.18,1.69.06.58.09.82,0,.26,0,.24,0,.22a1.49,1.49,0,0,1-.07.55c-2.73,1.47-7,1.41-9.87.4A11.18,11.18,0,0,1,20,23.81l-.25-.15a9.5,9.5,0,0,1-3.86-6,11.72,11.72,0,0,1-.25-1.44l0-.27A15.38,15.38,0,0,1,18,6.12l.1-.14A13.49,13.49,0,0,1,27,.22,12.45,12.45,0,0,1,34.6,1.06Z" transform="translate(-0.01 0)" fill="#e96166"/><path d="M93.16,7.1H98.1c-.09.72-.19,1.43-.32,2.15l0,.24-.09.52-.15.83c-.13.79-.27,1.57-.41,2.35-.08.49-.17,1-.25,1.45,0,.18-.07.36-.1.55a9.52,9.52,0,0,0-.2,5.07,1.34,1.34,0,0,0,1,.62,2.61,2.61,0,0,0,1.87-.62,7.66,7.66,0,0,0,2-3.79l.06-.25c.23-.91.4-1.84.56-2.77,0-.19.06-.37.1-.56.08-.48.16-1,.25-1.43l.3-1.74c.15-.87.31-1.75.46-2.62h4.93c-.11.76-.22,1.52-.36,2.28l0,.32c0,.23-.09.45-.13.68s-.13.74-.19,1.1c-.19,1-.38,2.09-.56,3.13-.14.77-.28,1.53-.41,2.3l0,.19c-.46,2.58-.85,5.18-1.23,7.78h-4.36l.08-1.25c0-.26,0-.52,0-.78v-.19l0-.45-.14.17a6.93,6.93,0,0,1-4.68,2.87,4.78,4.78,0,0,1-3.67-1,4.86,4.86,0,0,1-1.24-3.08c0-.3,0-.6,0-.9V20a21.91,21.91,0,0,1,.45-3.79l0-.25c.24-1.38.48-2.76.71-4.14l.33-1.87Z" transform="translate(-0.01 0)" fill="#e96166"/><path d="M109.86,7.18h14.73c0,.18,0,.37,0,.55l0,.31a6.26,6.26,0,0,1-1.84,3.76l-.16.19c-.27.3-.56.58-.86.86l-.83.82c-.36.37-.72.73-1.1,1.08l-.84.83-.81.8-1,.93c-.38.38-.76.76-1.15,1.13l-.92.92L114,20.43l8.3.09c-.09.63-.19,1.25-.32,1.87l0,.21-.09.43c0,.22-.09.45-.14.67l-.08.42,0,.2c-.1.46-.1.46-.19.56H106.24v-.8c0-1.93,1.26-3.19,2.47-4.45l.48-.45c.23-.21.44-.43.66-.65L111.38,17l1.13-1.11.8-.78c.35-.32.68-.66,1-1s.58-.57.88-.84l.85-.85c.31-.32.64-.62,1-.92l-8.31-.09c.19-1.44.19-1.44.29-2l0-.19.06-.39c0-.2.07-.4.1-.6l.07-.38.06-.35C109.4,7.13,109.49,7.18,109.86,7.18Z" transform="translate(-0.01 0)" fill="#e96166"/><path d="M2.85,9.86,3,10,3,10.14a8.84,8.84,0,0,0-.35,1.14c-.08.27-.08.27-.2.37a1.51,1.51,0,0,0-.23.87l0,.2a13.31,13.31,0,0,0,0,1.67.84.84,0,0,0,.66,0c0-.22,0-.22.07-.48l0-.29,0-.31,0-.31A10.39,10.39,0,0,0,3,11.63l-.24-.08A5.38,5.38,0,0,1,3.18,10c.7.22,1.4.46,2.11.71.55.19,1.11.37,1.67.53v.18l-.29.26a5.64,5.64,0,0,0-1.44,2.58l.32,0c.34,0,.67-.06,1-.07a6.24,6.24,0,0,0,3.66-.89,1.47,1.47,0,0,0,.45-1.12c0-.24-.05-.48-.08-.72l.23-.06a27.72,27.72,0,0,0,3.75-1.2A.9.9,0,0,1,15,10a6.28,6.28,0,0,1-.24,4.63,5.92,5.92,0,0,1-3.73,2.79,15.77,15.77,0,0,1-2.44.5L8.4,18A18.56,18.56,0,0,1,6.16,18H4.74c0,.22.09.43.14.64l0,.18a2.76,2.76,0,0,0,1.2,1.69c1.5.91,3.65.59,5.24.12.4-.12.8-.26,1.19-.4l.4-.15.34-.12.57,1.31c.06.15.12.3.19.45l.27.64.09.21a1.37,1.37,0,0,1,.2.77C11.26,25,7.37,26.05,3.79,24.65a6.13,6.13,0,0,1-3.2-3.41A11.24,11.24,0,0,1,.3,15.1l0-.18A11.66,11.66,0,0,1,2.85,9.86Z" transform="translate(-0.01 0)" fill="#464342"/><path d="M15.58,7.75a2.29,2.29,0,0,1,.51.6,4.68,4.68,0,0,1,0,.53,13.83,13.83,0,0,1-2.29,1l-.18.06A13,13,0,0,1,2.69,9.18a2.24,2.24,0,0,1-1.09-1,1,1,0,0,1,.34-.66,5.09,5.09,0,0,1,.63-.39l.18-.11C6.93,4.78,11.73,4.51,15.58,7.75Z" transform="translate(-0.01 0)" fill="#e96166"/><path d="M132.66,7.75A3.53,3.53,0,0,1,134,9.5a6.39,6.39,0,0,1,0,1.07v.28a3,3,0,0,1-.83,2.11,3.19,3.19,0,0,1-2.59.81,3.12,3.12,0,0,1-2-1.34,4.11,4.11,0,0,1-.39-2.93,3.64,3.64,0,0,1,1.51-1.87A3,3,0,0,1,132.66,7.75Zm-3.55,1a3.4,3.4,0,0,0-.49,2.49,3.27,3.27,0,0,0,.41.89l.09.15a2.45,2.45,0,0,0,1.55,1,2.36,2.36,0,0,0,1.87-.44,2.94,2.94,0,0,0,1.12-2,3.57,3.57,0,0,0-.53-2.13,2.69,2.69,0,0,0-2-1A2.51,2.51,0,0,0,129.11,8.79Z" transform="translate(-0.01 0)" fill="#454140"/><path d="M130,8.7l.82,0h.26a2,2,0,0,1,1.22.29,1.26,1.26,0,0,1,.25.85,1.26,1.26,0,0,1-.5.75h-.24l.15.26.21.34.11.17.1.17.09.15a2.16,2.16,0,0,1,.16.51,1,1,0,0,1-.58,0,5.89,5.89,0,0,1-.44-.73c-.17-.31-.31-.56-.64-.66h-.17l-.31,0v1.42H130Zm.49.45v1.06l.6,0h.17a.9.9,0,0,0,.62-.15.89.89,0,0,0,.09-.68,1.22,1.22,0,0,0-1-.28h-.51Z" transform="translate(-0.01 0)" fill="#454241"/></svg>